{
	"asset":{
		"generator":"Khronos glTF Blender I/O v3.6.27",
		"version":"2.0"
	},
	"scene":0,
	"scenes":[
		{
			"name":"Scene",
			"nodes":[
				0,
				1,
				2,
				3,
				4,
				5,
				6,
				7,
				8,
				9
			]
		}
	],
	"nodes":[
		{
			"mesh":0,
			"name":"Sphere",
			"translation":[
				0,
				0.9715052247047424,
				0
			]
		},
		{
			"mesh":1,
			"name":"Circle",
			"rotation":[
				0,
				0.12489256262779236,
				0,
				0.9921702742576599
			],
			"scale":[
				1.0961391925811768,
				0.9247485995292664,
				1.1394189596176147
			],
			"translation":[
				-0.028607696294784546,
				0.9887437224388123,
				0.016677528619766235
			]
		},
		{
			"mesh":2,
			"name":"Circle.001",
			"translation":[
				0.006537195295095444,
				0.960146963596344,
				-0.00047694891691207886
			]
		},
		{
			"mesh":3,
			"name":"Circle.002",
			"scale":[
				0.5002108216285706,
				0.5002108216285706,
				0.5002108216285706
			],
			"translation":[
				0.5920597314834595,
				0.8356105089187622,
				0.08816175162792206
			]
		},
		{
			"mesh":4,
			"name":"Circle.003",
			"scale":[
				0.5002108216285706,
				0.5002108216285706,
				0.5002108216285706
			],
			"translation":[
				-0.21721956133842468,
				0.824887216091156,
				-0.5736548900604248
			]
		},
		{
			"mesh":5,
			"name":"Circle.004",
			"scale":[
				0.5002108216285706,
				0.5002108216285706,
				0.5002108216285706
			],
			"translation":[
				-0.3100877106189728,
				0.8393468856811523,
				0.5902944207191467
			]
		},
		{
			"mesh":6,
			"name":"Circle.005",
			"scale":[
				1.1181398630142212,
				0.9433093667030334,
				1.1622883081436157
			],
			"translation":[
				-0.028607696294784546,
				0.7929702997207642,
				0.016677528619766235
			]
		},
		{
			"mesh":7,
			"name":"Plane",
			"scale":[
				0.8539435267448425,
				0.8539435267448425,
				0.8539435267448425
			],
			"translation":[
				0.042316436767578125,
				0.7539258003234863,
				-0.0235595703125
			]
		},
		{
			"mesh":8,
			"name":"Circle.006",
			"scale":[
				1,
				2.581636905670166,
				1
			],
			"translation":[
				0.006537195295095444,
				0.7338362336158752,
				-0.00047694891691207886
			]
		},
		{
			"mesh":9,
			"name":"Circle.007",
			"translation":[
				0.042316436767578125,
				0.3594430685043335,
				-0.0235595703125
			]
		}
	],
	"materials":[
		{
			"doubleSided":true,
			"name":"roti",
			"pbrMetallicRoughness":{
				"baseColorFactor":[
					0.8000000715255737,
					0.35545673966407776,
					0.10978680849075317,
					1
				],
				"metallicFactor":0,
				"roughnessFactor":0.6000000238418579
			}
		},
		{
			"doubleSided":true,
			"name":"sayuran",
			"pbrMetallicRoughness":{
				"baseColorFactor":[
					0.13927704095840454,
					0.8000000715255737,
					0.030248522758483887,
					1
				],
				"metallicFactor":0,
				"roughnessFactor":0.699999988079071
			}
		},
		{
			"doubleSided":true,
			"name":"daging",
			"pbrMetallicRoughness":{
				"baseColorFactor":[
					0.32637539505958557,
					0.1292831301689148,
					0.06200496107339859,
					1
				],
				"metallicFactor":0,
				"roughnessFactor":0.6000000238418579
			}
		},
		{
			"doubleSided":true,
			"name":"tomat",
			"pbrMetallicRoughness":{
				"baseColorFactor":[
					0.8000000715255737,
					0.023921219632029533,
					0.01839643530547619,
					1
				],
				"metallicFactor":0,
				"roughnessFactor":0.6000000238418579
			}
		},
		{
			"doubleSided":true,
			"name":"keju",
			"pbrMetallicRoughness":{
				"baseColorFactor":[
					0.8000000715255737,
					0.6849120855331421,
					0.046604741364717484,
					1
				],
				"metallicFactor":0,
				"roughnessFactor":0.699999988079071
			}
		},
		{
			"doubleSided":true,
			"name":"piring",
			"pbrMetallicRoughness":{
				"baseColorFactor":[
					1,
					0.07169806957244873,
					0.03100001811981201,
					1
				],
				"metallicFactor":0,
				"roughnessFactor":0.5
			}
		}
	],
	"meshes":[
		{
			"name":"Sphere",
			"primitives":[
				{
					"attributes":{
						"POSITION":0,
						"NORMAL":1,
						"TEXCOORD_0":2
					},
					"indices":3,
					"material":0
				}
			]
		},
		{
			"name":"Circle",
			"primitives":[
				{
					"attributes":{
						"POSITION":4,
						"NORMAL":5,
						"TEXCOORD_0":6
					},
					"indices":7,
					"material":1
				}
			]
		},
		{
			"name":"Circle.002",
			"primitives":[
				{
					"attributes":{
						"POSITION":8,
						"NORMAL":9,
						"TEXCOORD_0":10
					},
					"indices":11,
					"material":2
				}
			]
		},
		{
			"name":"Circle.008",
			"primitives":[
				{
					"attributes":{
						"POSITION":12,
						"NORMAL":13,
						"TEXCOORD_0":14
					},
					"indices":15,
					"material":3
				}
			]
		},
		{
			"name":"Circle.009",
			"primitives":[
				{
					"attributes":{
						"POSITION":16,
						"NORMAL":17,
						"TEXCOORD_0":18
					},
					"indices":15,
					"material":3
				}
			]
		},
		{
			"name":"Circle.010",
			"primitives":[
				{
					"attributes":{
						"POSITION":19,
						"NORMAL":20,
						"TEXCOORD_0":21
					},
					"indices":15,
					"material":3
				}
			]
		},
		{
			"name":"Circle.011",
			"primitives":[
				{
					"attributes":{
						"POSITION":22,
						"NORMAL":23,
						"TEXCOORD_0":24
					},
					"indices":25,
					"material":1
				}
			]
		},
		{
			"name":"Plane",
			"primitives":[
				{
					"attributes":{
						"POSITION":26,
						"NORMAL":27,
						"TEXCOORD_0":28
					},
					"indices":29,
					"material":4
				}
			]
		},
		{
			"name":"Circle.013",
			"primitives":[
				{
					"attributes":{
						"POSITION":30,
						"NORMAL":31,
						"TEXCOORD_0":32
					},
					"indices":11,
					"material":0
				}
			]
		},
		{
			"name":"Circle.001",
			"primitives":[
				{
					"attributes":{
						"POSITION":33,
						"NORMAL":34,
						"TEXCOORD_0":35
					},
					"indices":36,
					"material":5
				}
			]
		}
	],
	"accessors":[
		{
			"bufferView":0,
			"componentType":5126,
			"count":541,
			"max":[
				0.980951189994812,
				1,
				0.9809510111808777
			],
			"min":[
				-0.9809508919715881,
				0,
				-0.9809513092041016
			],
			"type":"VEC3"
		},
		{
			"bufferView":1,
			"componentType":5126,
			"count":541,
			"type":"VEC3"
		},
		{
			"bufferView":2,
			"componentType":5126,
			"count":541,
			"type":"VEC2"
		},
		{
			"bufferView":3,
			"componentType":5123,
			"count":2874,
			"type":"SCALAR"
		},
		{
			"bufferView":4,
			"componentType":5126,
			"count":12802,
			"max":[
				0.921217143535614,
				-0.0005855853669345379,
				0.9208645224571228
			],
			"min":[
				-0.8987497687339783,
				-0.02941441349685192,
				-0.8992671370506287
			],
			"type":"VEC3"
		},
		{
			"bufferView":5,
			"componentType":5126,
			"count":12802,
			"type":"VEC3"
		},
		{
			"bufferView":6,
			"componentType":5126,
			"count":12802,
			"type":"VEC2"
		},
		{
			"bufferView":7,
			"componentType":5123,
			"count":73728,
			"type":"SCALAR"
		},
		{
			"bufferView":8,
			"componentType":5126,
			"count":576,
			"max":[
				1,
				0,
				1
			],
			"min":[
				-1,
				-0.13276776671409607,
				-1
			],
			"type":"VEC3"
		},
		{
			"bufferView":9,
			"componentType":5126,
			"count":576,
			"type":"VEC3"
		},
		{
			"bufferView":10,
			"componentType":5126,
			"count":576,
			"type":"VEC2"
		},
		{
			"bufferView":11,
			"componentType":5123,
			"count":3060,
			"type":"SCALAR"
		},
		{
			"bufferView":12,
			"componentType":5126,
			"count":224,
			"max":[
				1,
				0,
				1
			],
			"min":[
				-1,
				-0.07072824984788895,
				-1
			],
			"type":"VEC3"
		},
		{
			"bufferView":13,
			"componentType":5126,
			"count":224,
			"type":"VEC3"
		},
		{
			"bufferView":14,
			"componentType":5126,
			"count":224,
			"type":"VEC2"
		},
		{
			"bufferView":15,
			"componentType":5123,
			"count":948,
			"type":"SCALAR"
		},
		{
			"bufferView":16,
			"componentType":5126,
			"count":224,
			"max":[
				1,
				0,
				1
			],
			"min":[
				-1,
				-0.07072824984788895,
				-1
			],
			"type":"VEC3"
		},
		{
			"bufferView":17,
			"componentType":5126,
			"count":224,
			"type":"VEC3"
		},
		{
			"bufferView":18,
			"componentType":5126,
			"count":224,
			"type":"VEC2"
		},
		{
			"bufferView":19,
			"componentType":5126,
			"count":224,
			"max":[
				1,
				0,
				1
			],
			"min":[
				-1,
				-0.07072824984788895,
				-1
			],
			"type":"VEC3"
		},
		{
			"bufferView":20,
			"componentType":5126,
			"count":224,
			"type":"VEC3"
		},
		{
			"bufferView":21,
			"componentType":5126,
			"count":224,
			"type":"VEC2"
		},
		{
			"bufferView":22,
			"componentType":5126,
			"count":32,
			"max":[
				1,
				0,
				1
			],
			"min":[
				-0.9807852506637573,
				0,
				-0.9807852506637573
			],
			"type":"VEC3"
		},
		{
			"bufferView":23,
			"componentType":5126,
			"count":32,
			"type":"VEC3"
		},
		{
			"bufferView":24,
			"componentType":5126,
			"count":32,
			"type":"VEC2"
		},
		{
			"bufferView":25,
			"componentType":5123,
			"count":90,
			"type":"SCALAR"
		},
		{
			"bufferView":26,
			"componentType":5126,
			"count":24,
			"max":[
				1.403871774673462,
				0,
				1.403871774673462
			],
			"min":[
				-1.403871774673462,
				-0.031438857316970825,
				-1.403871774673462
			],
			"type":"VEC3"
		},
		{
			"bufferView":27,
			"componentType":5126,
			"count":24,
			"type":"VEC3"
		},
		{
			"bufferView":28,
			"componentType":5126,
			"count":24,
			"type":"VEC2"
		},
		{
			"bufferView":29,
			"componentType":5123,
			"count":36,
			"type":"SCALAR"
		},
		{
			"bufferView":30,
			"componentType":5126,
			"count":576,
			"max":[
				1,
				0,
				1
			],
			"min":[
				-1,
				-0.13276776671409607,
				-1
			],
			"type":"VEC3"
		},
		{
			"bufferView":31,
			"componentType":5126,
			"count":576,
			"type":"VEC3"
		},
		{
			"bufferView":32,
			"componentType":5126,
			"count":576,
			"type":"VEC2"
		},
		{
			"bufferView":33,
			"componentType":5126,
			"count":256,
			"max":[
				1.5600371360778809,
				0.11417665332555771,
				1.5600371360778809
			],
			"min":[
				-1.5600371360778809,
				-5.0071221835423785e-08,
				-1.5600371360778809
			],
			"type":"VEC3"
		},
		{
			"bufferView":34,
			"componentType":5126,
			"count":256,
			"type":"VEC3"
		},
		{
			"bufferView":35,
			"componentType":5126,
			"count":256,
			"type":"VEC2"
		},
		{
			"bufferView":36,
			"componentType":5123,
			"count":756,
			"type":"SCALAR"
		}
	],
	"bufferViews":[
		{
			"buffer":0,
			"byteLength":6492,
			"byteOffset":0,
			"target":34962
		},
		{
			"buffer":0,
			"byteLength":6492,
			"byteOffset":6492,
			"target":34962
		},
		{
			"buffer":0,
			"byteLength":4328,
			"byteOffset":12984,
			"target":34962
		},
		{
			"buffer":0,
			"byteLength":5748,
			"byteOffset":17312,
			"target":34963
		},
		{
			"buffer":0,
			"byteLength":153624,
			"byteOffset":23060,
			"target":34962
		},
		{
			"buffer":0,
			"byteLength":153624,
			"byteOffset":176684,
			"target":34962
		},
		{
			"buffer":0,
			"byteLength":102416,
			"byteOffset":330308,
			"target":34962
		},
		{
			"buffer":0,
			"byteLength":147456,
			"byteOffset":432724,
			"target":34963
		},
		{
			"buffer":0,
			"byteLength":6912,
			"byteOffset":580180,
			"target":34962
		},
		{
			"buffer":0,
			"byteLength":6912,
			"byteOffset":587092,
			"target":34962
		},
		{
			"buffer":0,
			"byteLength":4608,
			"byteOffset":594004,
			"target":34962
		},
		{
			"buffer":0,
			"byteLength":6120,
			"byteOffset":598612,
			"target":34963
		},
		{
			"buffer":0,
			"byteLength":2688,
			"byteOffset":604732,
			"target":34962
		},
		{
			"buffer":0,
			"byteLength":2688,
			"byteOffset":607420,
			"target":34962
		},
		{
			"buffer":0,
			"byteLength":1792,
			"byteOffset":610108,
			"target":34962
		},
		{
			"buffer":0,
			"byteLength":1896,
			"byteOffset":611900,
			"target":34963
		},
		{
			"buffer":0,
			"byteLength":2688,
			"byteOffset":613796,
			"target":34962
		},
		{
			"buffer":0,
			"byteLength":2688,
			"byteOffset":616484,
			"target":34962
		},
		{
			"buffer":0,
			"byteLength":1792,
			"byteOffset":619172,
			"target":34962
		},
		{
			"buffer":0,
			"byteLength":2688,
			"byteOffset":620964,
			"target":34962
		},
		{
			"buffer":0,
			"byteLength":2688,
			"byteOffset":623652,
			"target":34962
		},
		{
			"buffer":0,
			"byteLength":1792,
			"byteOffset":626340,
			"target":34962
		},
		{
			"buffer":0,
			"byteLength":384,
			"byteOffset":628132,
			"target":34962
		},
		{
			"buffer":0,
			"byteLength":384,
			"byteOffset":628516,
			"target":34962
		},
		{
			"buffer":0,
			"byteLength":256,
			"byteOffset":628900,
			"target":34962
		},
		{
			"buffer":0,
			"byteLength":180,
			"byteOffset":629156,
			"target":34963
		},
		{
			"buffer":0,
			"byteLength":288,
			"byteOffset":629336,
			"target":34962
		},
		{
			"buffer":0,
			"byteLength":288,
			"byteOffset":629624,
			"target":34962
		},
		{
			"buffer":0,
			"byteLength":192,
			"byteOffset":629912,
			"target":34962
		},
		{
			"buffer":0,
			"byteLength":72,
			"byteOffset":630104,
			"target":34963
		},
		{
			"buffer":0,
			"byteLength":6912,
			"byteOffset":630176,
			"target":34962
		},
		{
			"buffer":0,
			"byteLength":6912,
			"byteOffset":637088,
			"target":34962
		},
		{
			"buffer":0,
			"byteLength":4608,
			"byteOffset":644000,
			"target":34962
		},
		{
			"buffer":0,
			"byteLength":3072,
			"byteOffset":648608,
			"target":34962
		},
		{
			"buffer":0,
			"byteLength":3072,
			"byteOffset":651680,
			"target":34962
		},
		{
			"buffer":0,
			"byteLength":2048,
			"byteOffset":654752,
			"target":34962
		},
		{
			"buffer":0,
			"byteLength":1512,
			"byteOffset":656800,
			"target":34963
		}
	],
	"buffers":[
		{
			"byteLength":658312,
			"uri":"data:application/octet-stream;base64,"
		}
	]
}
