{
	"asset":{
		"generator":"Khronos glTF Blender I/O v3.6.27",
		"version":"2.0"
	},
	"scene":0,
	"scenes":[
		{
			"name":"Scene",
			"nodes":[
				0,
				1,
				2,
				3
			]
		}
	],
	"nodes":[
		{
			"mesh":0,
			"name":"Circle.001",
			"scale":[
				1.642983317375183,
				1.642983317375183,
				1.642983317375183
			],
			"translation":[
				0.007819801568984985,
				-0.17063260078430176,
				-0.10849839448928833
			]
		},
		{
			"mesh":1,
			"name":"Circle.002",
			"rotation":[
				-0.08333301544189453,
				0.9890361428260803,
				-0.11784966289997101,
				0.03121941164135933
			],
			"scale":[
				0.20007753372192383,
				0.2000775784254074,
				0.20007753372192383
			],
			"translation":[
				0.3834511339664459,
				0.13998669385910034,
				0.6092351078987122
			]
		},
		{
			"mesh":2,
			"name":"Cylinder",
			"scale":[
				0.5832183957099915,
				0.5832183957099915,
				0.5832183957099915
			],
			"translation":[
				0.008481651544570923,
				0.5107980966567993,
				-0.3780001699924469
			]
		},
		{
			"mesh":3,
			"name":"Cylinder.001",
			"scale":[
				0.5245142579078674,
				0.4488692283630371,
				0.5245142579078674
			],
			"translation":[
				0.008481651544570923,
				0.4837436079978943,
				-0.3699638545513153
			]
		}
	],
	"materials":[
		{
			"doubleSided":true,
			"name":"piring",
			"pbrMetallicRoughness":{
				"baseColorFactor":[
					1,
					0.07169806957244873,
					0.03100001811981201,
					1
				],
				"metallicFactor":0,
				"roughnessFactor":0.4000000059604645
			}
		},
		{
			"doubleSided":true,
			"name":"Material.001",
			"pbrMetallicRoughness":{
				"baseColorFactor":[
					1,
					0.9665247201919556,
					0.29612475633621216,
					1
				],
				"metallicFactor":0,
				"roughnessFactor":0.4000000059604645
			}
		},
		{
			"doubleSided":true,
			"name":"kopi",
			"pbrMetallicRoughness":{
				"baseColorFactor":[
					0.08353128284215927,
					0.030489979311823845,
					0.017780199646949768,
					1
				],
				"metallicFactor":0,
				"roughnessFactor":0.5
			}
		}
	],
	"meshes":[
		{
			"name":"Circle",
			"primitives":[
				{
					"attributes":{
						"POSITION":0,
						"NORMAL":1,
						"TEXCOORD_0":2
					},
					"indices":3,
					"material":0
				}
			]
		},
		{
			"name":"Circle.003",
			"primitives":[
				{
					"attributes":{
						"POSITION":4,
						"NORMAL":5,
						"TEXCOORD_0":6
					},
					"indices":7
				}
			]
		},
		{
			"name":"Cylinder.001",
			"primitives":[
				{
					"attributes":{
						"POSITION":8,
						"NORMAL":9,
						"TEXCOORD_0":10
					},
					"indices":11,
					"material":1
				}
			]
		},
		{
			"name":"Cylinder.002",
			"primitives":[
				{
					"attributes":{
						"POSITION":12,
						"NORMAL":13,
						"TEXCOORD_0":14
					},
					"indices":15,
					"material":2
				}
			]
		}
	],
	"accessors":[
		{
			"bufferView":0,
			"componentType":5126,
			"count":256,
			"max":[
				1,
				0.10131626576185226,
				1
			],
			"min":[
				-1,
				0,
				-1
			],
			"type":"VEC3"
		},
		{
			"bufferView":1,
			"componentType":5126,
			"count":256,
			"type":"VEC3"
		},
		{
			"bufferView":2,
			"componentType":5126,
			"count":256,
			"type":"VEC2"
		},
		{
			"bufferView":3,
			"componentType":5123,
			"count":756,
			"type":"SCALAR"
		},
		{
			"bufferView":4,
			"componentType":5126,
			"count":262,
			"max":[
				5.883039951324463,
				0.5648886561393738,
				0.8483467102050781
			],
			"min":[
				-1.4267137050628662,
				-0.3329226076602936,
				-0.8582766652107239
			],
			"type":"VEC3"
		},
		{
			"bufferView":5,
			"componentType":5126,
			"count":262,
			"type":"VEC3"
		},
		{
			"bufferView":6,
			"componentType":5126,
			"count":262,
			"type":"VEC2"
		},
		{
			"bufferView":7,
			"componentType":5123,
			"count":1356,
			"type":"SCALAR"
		},
		{
			"bufferView":8,
			"componentType":5126,
			"count":23081,
			"max":[
				0.9935951828956604,
				0.99177086353302,
				0.9935951828956604
			],
			"min":[
				-1.7900404930114746,
				-0.9961459636688232,
				-0.9935952425003052
			],
			"type":"VEC3"
		},
		{
			"bufferView":9,
			"componentType":5126,
			"count":23081,
			"type":"VEC3"
		},
		{
			"bufferView":10,
			"componentType":5126,
			"count":23081,
			"type":"VEC2"
		},
		{
			"bufferView":11,
			"componentType":5123,
			"count":135168,
			"type":"SCALAR"
		},
		{
			"bufferView":12,
			"componentType":5126,
			"count":130,
			"max":[
				1,
				1,
				1
			],
			"min":[
				-1,
				-1,
				-1
			],
			"type":"VEC3"
		},
		{
			"bufferView":13,
			"componentType":5126,
			"count":130,
			"type":"VEC3"
		},
		{
			"bufferView":14,
			"componentType":5126,
			"count":130,
			"type":"VEC2"
		},
		{
			"bufferView":15,
			"componentType":5123,
			"count":372,
			"type":"SCALAR"
		}
	],
	"bufferViews":[
		{
			"buffer":0,
			"byteLength":3072,
			"byteOffset":0,
			"target":34962
		},
		{
			"buffer":0,
			"byteLength":3072,
			"byteOffset":3072,
			"target":34962
		},
		{
			"buffer":0,
			"byteLength":2048,
			"byteOffset":6144,
			"target":34962
		},
		{
			"buffer":0,
			"byteLength":1512,
			"byteOffset":8192,
			"target":34963
		},
		{
			"buffer":0,
			"byteLength":3144,
			"byteOffset":9704,
			"target":34962
		},
		{
			"buffer":0,
			"byteLength":3144,
			"byteOffset":12848,
			"target":34962
		},
		{
			"buffer":0,
			"byteLength":2096,
			"byteOffset":15992,
			"target":34962
		},
		{
			"buffer":0,
			"byteLength":2712,
			"byteOffset":18088,
			"target":34963
		},
		{
			"buffer":0,
			"byteLength":276972,
			"byteOffset":20800,
			"target":34962
		},
		{
			"buffer":0,
			"byteLength":276972,
			"byteOffset":297772,
			"target":34962
		},
		{
			"buffer":0,
			"byteLength":184648,
			"byteOffset":574744,
			"target":34962
		},
		{
			"buffer":0,
			"byteLength":270336,
			"byteOffset":759392,
			"target":34963
		},
		{
			"buffer":0,
			"byteLength":1560,
			"byteOffset":1029728,
			"target":34962
		},
		{
			"buffer":0,
			"byteLength":1560,
			"byteOffset":1031288,
			"target":34962
		},
		{
			"buffer":0,
			"byteLength":1040,
			"byteOffset":1032848,
			"target":34962
		},
		{
			"buffer":0,
			"byteLength":744,
			"byteOffset":1033888,
			"target":34963
		}
	],
	"buffers":[
		{
			"byteLength":1034632,
			"uri":"data:application/octet-stream;base64,"
		}
	]
}
