{
	"asset":{
		"generator":"Khronos glTF Blender I/O v3.6.27",
		"version":"2.0"
	},
	"scene":0,
	"scenes":[
		{
			"name":"Scene",
			"nodes":[
				0,
				1,
				2,
				3,
				4,
				5,
				6,
				7
			]
		}
	],
	"nodes":[
		{
			"mesh":0,
			"name":"Circle",
			"scale":[
				0.7167636156082153,
				1.1079014539718628,
				0.7167636156082153
			],
			"translation":[
				-0.020372986793518066,
				0.03641003742814064,
				-0.011189818382263184
			]
		},
		{
			"mesh":1,
			"name":"Circle.001",
			"scale":[
				0.7167636156082153,
				1.1079014539718628,
				0.7167636156082153
			],
			"translation":[
				-0.020372986793518066,
				0.17606395483016968,
				-0.011189818382263184
			]
		},
		{
			"mesh":2,
			"name":"Circle.002",
			"scale":[
				0.7167636156082153,
				1.1079014539718628,
				0.7167636156082153
			],
			"translation":[
				-0.020372986793518066,
				0.31305521726608276,
				-0.011189818382263184
			]
		},
		{
			"mesh":3,
			"name":"Circle.003",
			"scale":[
				0.7167636156082153,
				1.1079014539718628,
				0.7167636156082153
			],
			"translation":[
				-0.020372986793518066,
				0.4446260929107666,
				-0.011189818382263184
			]
		},
		{
			"mesh":4,
			"name":"Circle.005",
			"scale":[
				0.7167636156082153,
				1.1079014539718628,
				0.7167636156082153
			],
			"translation":[
				-0.020372986793518066,
				0.5548027753829956,
				-0.011189818382263184
			]
		},
		{
			"mesh":5,
			"name":"Circle.004",
			"scale":[
				0.7423574328422546,
				0.7423574328422546,
				0.7814894914627075
			],
			"translation":[
				-0.021046161651611328,
				0.765435516834259,
				-0.017391860485076904
			]
		},
		{
			"mesh":6,
			"name":"Circle.006",
			"scale":[
				1.0188212394714355,
				1.0188212394714355,
				1.0188212394714355
			],
			"translation":[
				-0.03807210922241211,
				0.04562360420823097,
				0.016515076160430908
			]
		},
		{
			"mesh":7,
			"name":"Plane",
			"scale":[
				0.13101089000701904,
				0.13101089000701904,
				0.13101089000701904
			],
			"translation":[
				-0.03316020965576172,
				0.7502046227455139,
				-0.021784484386444092
			]
		}
	],
	"materials":[
		{
			"doubleSided":true,
			"name":"pancake",
			"pbrMetallicRoughness":{
				"baseColorFactor":[
					0.5925780534744263,
					0.22343096137046814,
					0.09098454564809799,
					1
				],
				"metallicFactor":0,
				"roughnessFactor":0.4000000059604645
			}
		},
		{
			"doubleSided":true,
			"name":"Material.madu001",
			"pbrMetallicRoughness":{
				"baseColorFactor":[
					0.3185389041900635,
					0.07551829516887665,
					0.03693806380033493,
					1
				],
				"metallicFactor":0.17977528274059296,
				"roughnessFactor":0
			}
		},
		{
			"doubleSided":true,
			"name":"piring",
			"pbrMetallicRoughness":{
				"baseColorFactor":[
					1,
					0.0708257257938385,
					0.030941598117351532,
					1
				],
				"metallicFactor":0,
				"roughnessFactor":0.4000000059604645
			}
		},
		{
			"doubleSided":true,
			"name":"keju",
			"pbrMetallicRoughness":{
				"baseColorFactor":[
					0.8000000715255737,
					0.656342089176178,
					0.04761192947626114,
					1
				],
				"metallicFactor":0,
				"roughnessFactor":0.4000000059604645
			}
		}
	],
	"meshes":[
		{
			"name":"Circle",
			"primitives":[
				{
					"attributes":{
						"POSITION":0,
						"NORMAL":1,
						"TEXCOORD_0":2
					},
					"indices":3,
					"material":0
				}
			]
		},
		{
			"name":"Circle.001",
			"primitives":[
				{
					"attributes":{
						"POSITION":4,
						"NORMAL":5,
						"TEXCOORD_0":6
					},
					"indices":3,
					"material":0
				}
			]
		},
		{
			"name":"Circle.002",
			"primitives":[
				{
					"attributes":{
						"POSITION":7,
						"NORMAL":8,
						"TEXCOORD_0":9
					},
					"indices":10,
					"material":0
				}
			]
		},
		{
			"name":"Circle.003",
			"primitives":[
				{
					"attributes":{
						"POSITION":11,
						"NORMAL":12,
						"TEXCOORD_0":13
					},
					"indices":3,
					"material":0
				}
			]
		},
		{
			"name":"Circle.005",
			"primitives":[
				{
					"attributes":{
						"POSITION":14,
						"NORMAL":15,
						"TEXCOORD_0":16
					},
					"indices":3,
					"material":0
				}
			]
		},
		{
			"name":"Circle.006",
			"primitives":[
				{
					"attributes":{
						"POSITION":17,
						"NORMAL":18,
						"TEXCOORD_0":19
					},
					"indices":20,
					"material":1
				}
			]
		},
		{
			"name":"Circle.007",
			"primitives":[
				{
					"attributes":{
						"POSITION":21,
						"NORMAL":22,
						"TEXCOORD_0":23
					},
					"indices":24,
					"material":2
				}
			]
		},
		{
			"name":"Plane",
			"primitives":[
				{
					"attributes":{
						"POSITION":25,
						"NORMAL":26,
						"TEXCOORD_0":27
					},
					"indices":28,
					"material":3
				}
			]
		}
	],
	"accessors":[
		{
			"bufferView":0,
			"componentType":5126,
			"count":64,
			"max":[
				1,
				0.13439582288265228,
				1
			],
			"min":[
				-1,
				0,
				-1
			],
			"type":"VEC3"
		},
		{
			"bufferView":1,
			"componentType":5126,
			"count":64,
			"type":"VEC3"
		},
		{
			"bufferView":2,
			"componentType":5126,
			"count":64,
			"type":"VEC2"
		},
		{
			"bufferView":3,
			"componentType":5123,
			"count":372,
			"type":"SCALAR"
		},
		{
			"bufferView":4,
			"componentType":5126,
			"count":64,
			"max":[
				1,
				0.13439582288265228,
				1
			],
			"min":[
				-1,
				0,
				-1
			],
			"type":"VEC3"
		},
		{
			"bufferView":5,
			"componentType":5126,
			"count":64,
			"type":"VEC3"
		},
		{
			"bufferView":6,
			"componentType":5126,
			"count":64,
			"type":"VEC2"
		},
		{
			"bufferView":7,
			"componentType":5126,
			"count":3842,
			"max":[
				0.9932206273078918,
				0.13422010838985443,
				0.9932206273078918
			],
			"min":[
				-0.9932206273078918,
				0.00017573063087183982,
				-0.9932206273078918
			],
			"type":"VEC3"
		},
		{
			"bufferView":8,
			"componentType":5126,
			"count":3842,
			"type":"VEC3"
		},
		{
			"bufferView":9,
			"componentType":5126,
			"count":3842,
			"type":"VEC2"
		},
		{
			"bufferView":10,
			"componentType":5123,
			"count":23040,
			"type":"SCALAR"
		},
		{
			"bufferView":11,
			"componentType":5126,
			"count":64,
			"max":[
				1,
				0.13439582288265228,
				1
			],
			"min":[
				-1,
				0,
				-1
			],
			"type":"VEC3"
		},
		{
			"bufferView":12,
			"componentType":5126,
			"count":64,
			"type":"VEC3"
		},
		{
			"bufferView":13,
			"componentType":5126,
			"count":64,
			"type":"VEC2"
		},
		{
			"bufferView":14,
			"componentType":5126,
			"count":64,
			"max":[
				1,
				0.13439582288265228,
				1
			],
			"min":[
				-1,
				0,
				-1
			],
			"type":"VEC3"
		},
		{
			"bufferView":15,
			"componentType":5126,
			"count":64,
			"type":"VEC3"
		},
		{
			"bufferView":16,
			"componentType":5126,
			"count":64,
			"type":"VEC2"
		},
		{
			"bufferView":17,
			"componentType":5126,
			"count":1770,
			"max":[
				0.9905256032943726,
				-0.006014775484800339,
				0.9982198476791382
			],
			"min":[
				-1.001302719116211,
				-0.6298182606697083,
				-1.0233248472213745
			],
			"type":"VEC3"
		},
		{
			"bufferView":18,
			"componentType":5126,
			"count":1770,
			"type":"VEC3"
		},
		{
			"bufferView":19,
			"componentType":5126,
			"count":1770,
			"type":"VEC2"
		},
		{
			"bufferView":20,
			"componentType":5123,
			"count":10608,
			"type":"SCALAR"
		},
		{
			"bufferView":21,
			"componentType":5126,
			"count":2818,
			"max":[
				0.9917275309562683,
				0.03934945911169052,
				0.9917275309562683
			],
			"min":[
				-0.9917275309562683,
				-0.11750917136669159,
				-0.9917275309562683
			],
			"type":"VEC3"
		},
		{
			"bufferView":22,
			"componentType":5126,
			"count":2818,
			"type":"VEC3"
		},
		{
			"bufferView":23,
			"componentType":5126,
			"count":2818,
			"type":"VEC2"
		},
		{
			"bufferView":24,
			"componentType":5123,
			"count":16896,
			"type":"SCALAR"
		},
		{
			"bufferView":25,
			"componentType":5126,
			"count":24,
			"max":[
				1,
				0.3781912922859192,
				1
			],
			"min":[
				-1,
				0,
				-1
			],
			"type":"VEC3"
		},
		{
			"bufferView":26,
			"componentType":5126,
			"count":24,
			"type":"VEC3"
		},
		{
			"bufferView":27,
			"componentType":5126,
			"count":24,
			"type":"VEC2"
		},
		{
			"bufferView":28,
			"componentType":5123,
			"count":36,
			"type":"SCALAR"
		}
	],
	"bufferViews":[
		{
			"buffer":0,
			"byteLength":768,
			"byteOffset":0,
			"target":34962
		},
		{
			"buffer":0,
			"byteLength":768,
			"byteOffset":768,
			"target":34962
		},
		{
			"buffer":0,
			"byteLength":512,
			"byteOffset":1536,
			"target":34962
		},
		{
			"buffer":0,
			"byteLength":744,
			"byteOffset":2048,
			"target":34963
		},
		{
			"buffer":0,
			"byteLength":768,
			"byteOffset":2792,
			"target":34962
		},
		{
			"buffer":0,
			"byteLength":768,
			"byteOffset":3560,
			"target":34962
		},
		{
			"buffer":0,
			"byteLength":512,
			"byteOffset":4328,
			"target":34962
		},
		{
			"buffer":0,
			"byteLength":46104,
			"byteOffset":4840,
			"target":34962
		},
		{
			"buffer":0,
			"byteLength":46104,
			"byteOffset":50944,
			"target":34962
		},
		{
			"buffer":0,
			"byteLength":30736,
			"byteOffset":97048,
			"target":34962
		},
		{
			"buffer":0,
			"byteLength":46080,
			"byteOffset":127784,
			"target":34963
		},
		{
			"buffer":0,
			"byteLength":768,
			"byteOffset":173864,
			"target":34962
		},
		{
			"buffer":0,
			"byteLength":768,
			"byteOffset":174632,
			"target":34962
		},
		{
			"buffer":0,
			"byteLength":512,
			"byteOffset":175400,
			"target":34962
		},
		{
			"buffer":0,
			"byteLength":768,
			"byteOffset":175912,
			"target":34962
		},
		{
			"buffer":0,
			"byteLength":768,
			"byteOffset":176680,
			"target":34962
		},
		{
			"buffer":0,
			"byteLength":512,
			"byteOffset":177448,
			"target":34962
		},
		{
			"buffer":0,
			"byteLength":21240,
			"byteOffset":177960,
			"target":34962
		},
		{
			"buffer":0,
			"byteLength":21240,
			"byteOffset":199200,
			"target":34962
		},
		{
			"buffer":0,
			"byteLength":14160,
			"byteOffset":220440,
			"target":34962
		},
		{
			"buffer":0,
			"byteLength":21216,
			"byteOffset":234600,
			"target":34963
		},
		{
			"buffer":0,
			"byteLength":33816,
			"byteOffset":255816,
			"target":34962
		},
		{
			"buffer":0,
			"byteLength":33816,
			"byteOffset":289632,
			"target":34962
		},
		{
			"buffer":0,
			"byteLength":22544,
			"byteOffset":323448,
			"target":34962
		},
		{
			"buffer":0,
			"byteLength":33792,
			"byteOffset":345992,
			"target":34963
		},
		{
			"buffer":0,
			"byteLength":288,
			"byteOffset":379784,
			"target":34962
		},
		{
			"buffer":0,
			"byteLength":288,
			"byteOffset":380072,
			"target":34962
		},
		{
			"buffer":0,
			"byteLength":192,
			"byteOffset":380360,
			"target":34962
		},
		{
			"buffer":0,
			"byteLength":72,
			"byteOffset":380552,
			"target":34963
		}
	],
	"buffers":[
		{
			"byteLength":380624,
			"uri":"data:application/octet-stream;base64,"
		}
	]
}
